<svg xmlns="http://www.w3.org/2000/svg" viewBox="0 0 89.7 33.87"><defs><style>.cls-1{fill:#0095a3;}.cls-2{fill:#de3554;}</style></defs><g id="Layer_2" data-name="Layer 2"><g id="Layer_1-2" data-name="Layer 1"><path class="cls-1" d="M0,17C0,9.73,4.6,6.29,9.66,6.29a8,8,0,0,1,7.87,5.13V0h2.84V27.19H17.53v-4.6a8,8,0,0,1-7.83,5.1C4.6,27.69,0,24.25,0,17Zm17.6,0c0-5-3-8.15-7.43-8.15S2.8,11.89,2.8,17s3,8.23,7.44,8.23S17.6,22,17.6,17Z"/><path class="cls-1" d="M34.13,6.68h2.8v4.6C38.19,8,41.2,6.21,44.83,6.21c4.89,0,9.66,3.27,9.66,10.71S49.68,27.55,44.8,27.55c-3.6,0-6.61-1.76-7.87-5.06V33.87h-2.8ZM51.66,16.92c0-5.07-2.91-8.23-7.33-8.23s-7.44,3.13-7.44,8.23,3,8.15,7.37,8.15S51.66,22,51.66,16.92Z"/><path class="cls-1" d="M58.67,6.68h2.8v3.74c.86-2.45,3-4.49,7.47-3.81l-.36,2.77c-5-.94-7.11,2-7.11,7.21V27.23h-2.8Z"/><path class="cls-1" d="M69.3,17c0-7.4,5-10.66,10.16-10.66S89.7,9.55,89.7,17s-5,10.74-10.16,10.74S69.3,24.42,69.3,17Zm17.6,0c0-5-3-8.15-7.44-8.15S72.1,11.89,72.1,17s2.94,8.23,7.44,8.23S86.9,22,86.9,17Z"/><path class="cls-2" d="M23.5,17.92c0-2.21,1.62-3.48,3.83-3.48s3.83,1.27,3.83,3.48-1.74,3.49-3.83,3.49S23.5,20.13,23.5,17.92Z"/></g></g></svg>