<svg xmlns="http://www.w3.org/2000/svg" xmlns:xlink="http://www.w3.org/1999/xlink" viewBox="0 0 125.4 47.35"><defs><style>.cls-1{fill:none;}.cls-2{clip-path:url(#clip-path);}.cls-3{fill:#fff;}.cls-4{fill:#de3554;}</style><clipPath id="clip-path" transform="translate(0 0)"><rect class="cls-1" width="125.4" height="47.35"/></clipPath></defs><g id="Layer_2" data-name="Layer 2"><g id="Layer_1-2" data-name="Layer 1"><g class="cls-2"><path class="cls-3" d="M24.6,23.7c0-7-4.11-11.4-10.39-11.4S3.92,16.62,3.92,23.7,8,35.2,14.31,35.2,24.6,30.78,24.6,23.7M0,23.7C0,13.61,6.43,8.79,13.51,8.79c4.87,0,9.24,2.41,11,7.18V0h4V38h-4V31.58c-1.75,4.73-6.07,7.13-10.94,7.13C6.43,38.71,0,33.89,0,23.7" transform="translate(0 0)"/><path class="cls-3" d="M72.21,23.65c0-7.08-4.06-11.5-10.24-11.5s-10.39,4.37-10.39,11.5,4.11,11.4,10.29,11.4,10.34-4.37,10.34-11.4M47.71,9.34h3.92v6.43c1.75-4.62,6-7.08,11-7.08,6.83,0,13.51,4.57,13.51,15S69.45,38.51,62.62,38.51c-5,0-9.24-2.46-11-7.08V47.35H47.71Z" transform="translate(0 0)"/><path class="cls-3" d="M82,9.34h3.92v5.22c1.21-3.41,4.27-6.27,10.45-5.32l-.51,3.87c-7-1.31-9.94,2.81-9.94,10.09V38.06H82Z" transform="translate(0 0)"/><path class="cls-3" d="M121.48,23.7c0-7-4.16-11.4-10.39-11.4s-10.3,4.32-10.3,11.4,4.12,11.5,10.4,11.5,10.29-4.42,10.29-11.5m-24.6,0c0-10.34,7-14.91,14.21-14.91S125.4,13.36,125.4,23.7s-7,15-14.21,15-14.31-4.56-14.31-15" transform="translate(0 0)"/><path class="cls-4" d="M32.85,25.05c0-3.08,2.27-4.87,5.36-4.87,2.92,0,5.36,1.79,5.36,4.87s-2.44,4.88-5.36,4.88c-3.09,0-5.36-1.79-5.36-4.88" transform="translate(0 0)"/></g></g></g></svg>